<?xml version="1.0" encoding="UTF-8"?>
<svg width="780px" height="172px" viewBox="0 0 780 172" version="1.1" xmlns="http://www.w3.org/2000/svg" xmlns:xlink="http://www.w3.org/1999/xlink">
    <!-- Generator: sketchtool 58 (101010) - https://sketch.com -->
    <title>BB5A8E55-A21C-4108-8786-DAB5D2BFCF21</title>
    <desc>Created with sketchtool.</desc>
    <defs>
        <polygon id="path-1" points="0.701379839 0.859511464 15.7797987 0.859511464 15.7797987 15.9370985 0.701379839 15.9370985"></polygon>
        <polygon id="path-3" points="0 171.902293 779.105553 171.902293 779.105553 2.77261763 0 2.77261763"></polygon>
    </defs>
    <g id="Design" stroke="none" stroke-width="1" fill="none" fill-rule="evenodd">
        <g id="widefind-splash" transform="translate(-361.000000, -484.000000)">
            <g id="Group-31" transform="translate(361.000000, 484.000000)">
                <path d="M103.329078,160.069597 C106.036267,162.776787 106.036267,167.164711 103.329078,169.871901 C100.621888,172.57909 96.2339635,172.57909 93.5267739,169.871901 C90.8195843,167.164711 90.8195843,162.776787 93.5267739,160.069597 C96.2339635,157.362407 100.621888,157.362407 103.329078,160.069597" id="Fill-1" fill="#FFFFFF"></path>
                <path d="M37.864847,70.2672404 C46.5275604,78.9299538 46.5275604,92.9740761 37.864847,101.635052 C29.2021336,110.297766 15.1580114,110.297766 6.49703503,101.635052 C-2.16567834,92.9740761 -2.16567834,78.9299538 6.49703503,70.2672404 C15.1580114,61.6045271 29.2021336,61.6045271 37.864847,70.2672404" id="Fill-3" fill="#FFFFFF"></path>
                <path d="M70.3944598,115.370921 C76.3494146,121.32759 76.3494146,130.982328 70.3944598,136.937283 C64.4395049,142.892238 54.783053,142.892238 48.8280982,136.937283 C42.8731433,130.982328 42.8731433,121.32759 48.8280982,115.370921 C54.783053,109.415966 64.4395049,109.415966 70.3944598,115.370921" id="Fill-5" fill="#FFFFFF"></path>
                <path d="M152.493969,126.154102 C152.493969,134.576485 145.666955,141.403499 137.244573,141.403499 C128.823903,141.403499 121.995176,134.576485 121.995176,126.154102 C121.995176,117.731719 128.823903,110.904705 137.244573,110.904705 C145.666955,110.904705 152.493969,117.731719 152.493969,126.154102" id="Fill-7" fill="#FFFFFF"></path>
                <path d="M64.5124308,43.6196566 C67.2196204,46.3268462 67.2196204,50.7147707 64.5124308,53.4219603 C61.8052412,56.1291499 57.4173168,56.1291499 54.7101271,53.4219603 C52.0029375,50.7147707 52.0029375,46.3268462 54.7101271,43.6196566 C57.4173168,40.912467 61.8052412,40.912467 64.5124308,43.6196566" id="Fill-9" fill="#FFFFFF"></path>
                <path d="M115.498141,70.2672404 C124.160854,78.9299538 124.160854,92.9740761 115.498141,101.635052 C106.835427,110.297766 92.7913049,110.297766 84.1303286,101.635052 C75.4676152,92.9740761 75.4676152,78.9299538 84.1303286,70.2672404 C92.7913049,61.6045271 106.835427,61.6045271 115.498141,70.2672404" id="Fill-11" fill="#FFFFFF"></path>
                <path d="M193.131434,70.2672404 C201.794147,78.9299538 201.794147,92.9740761 193.131434,101.635052 C184.470458,110.297766 170.426335,110.297766 161.763622,101.635052 C153.100909,92.9740761 153.100909,78.9299538 161.763622,70.2672404 C170.426335,61.6045271 184.470458,61.6045271 193.131434,70.2672404" id="Fill-13" fill="#FFFFFF"></path>
                <g id="Group-17" transform="translate(91.496382, 0.000000)">
                    <mask id="mask-2" fill="white">
                        <use xlink:href="#path-1"></use>
                    </mask>
                    <g id="Clip-16"></g>
                    <path d="M13.5714088,3.06706962 C16.5159287,6.01158954 16.5159287,10.7841887 13.5714088,13.7287086 C10.6268888,16.6732285 5.8542897,16.6732285 2.90976978,13.7287086 C-0.0347501409,10.7841887 -0.0347501409,6.01158954 2.90976978,3.06706962 C5.8542897,0.122549699 10.6268888,0.122549699 13.5714088,3.06706962" id="Fill-15" fill="#FFFFFF" mask="url(#mask-2)"></path>
                </g>
                <path d="M142.145724,43.6196566 C144.852914,46.3268462 144.852914,50.7147707 142.145724,53.4219603 C139.438535,56.1291499 135.05061,56.1291499 132.343421,53.4219603 C129.636231,50.7147707 129.636231,46.3268462 132.343421,43.6196566 C135.05061,40.912467 139.438535,40.912467 142.145724,43.6196566" id="Fill-18" fill="#FFFFFF"></path>
                <mask id="mask-4" fill="white">
                    <use xlink:href="#path-3"></use>
                </mask>
                <g id="Clip-21"></g>
                <polygon id="Fill-20" fill="#FFFFFF" mask="url(#mask-4)" points="393.711703 135.858264 407.574791 135.858264 407.574791 66.542823 393.711703 66.542823"></polygon>
                <path d="M450.759691,75.5375319 C438.536067,75.5375319 430.617846,84.9978739 430.617846,99.1186755 C430.617846,113.373799 438.536067,122.971863 450.759691,122.971863 C462.983314,122.971863 471.039363,113.511521 471.039363,99.2546976 C471.039363,85.1355963 462.983314,75.5375319 450.759691,75.5375319 L450.759691,75.5375319 Z M485.208085,38.8166468 L485.208085,134.350118 L470.901535,134.350118 L470.901535,122.696418 C465.622721,131.469848 457.566673,135.858264 446.592115,135.858264 C428.255819,135.858264 415.892644,121.325995 415.892644,99.2546976 C415.892644,77.7325897 429.367057,63.0625986 447.842905,63.0625986 C458.260981,63.0625986 465.9001,66.9018244 470.484605,74.5785756 L470.484605,38.8166468 L485.208085,38.8166468 Z" id="Fill-22" fill="#FFFFFF" mask="url(#mask-4)"></path>
                <path d="M509.838137,93.3654733 L546.394841,93.3654733 C546.394841,82.5036042 539.894565,75.718093 529.063571,75.718093 C518.232577,75.718093 510.786899,82.5036042 509.838137,93.3654733 L509.838137,93.3654733 Z M560.068761,103.818191 L509.70212,103.818191 C509.70212,116.44463 517.421512,123.910376 529.876315,123.910376 C538.406773,123.910376 544.226963,120.381237 546.799534,113.999826 L559.392033,113.999826 C556.006718,127.170115 544.364659,135.858264 528.793216,135.858264 C509.16141,135.858264 496.298555,121.874723 496.298555,100.289052 C496.298555,78.4322975 509.70212,63.7702054 529.335605,63.7702054 C547.884312,63.7702054 560.068761,77.0751953 560.068761,97.8459312 L560.068761,103.818191 Z" id="Fill-23" fill="#FFFFFF" mask="url(#mask-4)"></path>
                <path d="M600.436371,51.4319366 C594.092631,51.4319366 591.553737,53.9267963 591.553737,60.1648052 L591.553737,65.1545246 L605.37078,65.1545246 L605.37078,77.9090864 L591.553737,77.9090864 L591.553737,135.858264 L576.75226,135.858264 L576.75226,77.9090864 L565.613996,77.9090864 L565.613996,65.1545246 L576.75226,65.1545246 L576.75226,61.1362702 C576.75226,44.6385592 582.391334,38.8166468 598.039109,38.8166468 L607.20326,38.8166468 L607.20326,51.4319366 L600.436371,51.4319366 Z" id="Fill-24" fill="#FFFFFF" mask="url(#mask-4)"></path>
                <polygon id="Fill-25" fill="#FFFFFF" mask="url(#mask-4)" points="615.521113 135.858264 629.384201 135.858264 629.384201 66.542823 615.521113 66.542823"></polygon>
                <path d="M701.472259,135.858264 L686.915782,135.858264 L686.915782,91.6360475 C686.915782,82.6248253 681.647528,76.8013165 672.914673,76.8013165 C661.962068,76.8013165 655.168701,84.8428136 655.168701,98.0131937 L655.168701,135.858264 L640.474672,135.858264 L640.474672,65.1560182 L655.168701,65.1560182 L655.168701,75.6923223 C660.02086,67.3757259 666.398131,63.7702054 676.795369,63.7702054 C692.737685,63.7702054 701.472259,72.9206966 701.472259,90.1109656 L701.472259,135.858264 Z" id="Fill-26" fill="#FFFFFF" mask="url(#mask-4)"></path>
                <path d="M744.656292,75.8037441 C732.432973,75.8037441 724.514949,85.2223349 724.514949,99.2808175 C724.514949,113.473029 732.432973,123.028735 744.656292,123.028735 C756.879612,123.028735 764.937183,113.610144 764.937183,99.4162394 C764.937183,85.3594496 756.879612,75.8037441 744.656292,75.8037441 L744.656292,75.8037441 Z M779.105553,38.8166468 L779.105553,134.356774 L764.797636,134.356774 L764.797636,122.754505 C759.518953,131.489216 751.463105,135.858264 740.488821,135.858264 C722.15298,135.858264 709.790112,121.39013 709.790112,99.4162394 C709.790112,77.9891145 723.264191,63.3838662 741.739579,63.3838662 C752.157397,63.3838662 759.798048,67.2061484 764.380717,74.84902 L764.380717,38.8166468 L779.105553,38.8166468 Z" id="Fill-27" fill="#FFFFFF" mask="url(#mask-4)"></path>
                <path d="M407.574791,44.361882 C407.574791,48.9557496 403.850806,52.6797349 399.256938,52.6797349 C394.663071,52.6797349 390.939085,48.9557496 390.939085,44.361882 C390.939085,39.7680144 394.663071,36.0440291 399.256938,36.0440291 C403.850806,36.0440291 407.574791,39.7680144 407.574791,44.361882" id="Fill-28" fill="#FFFFFF" mask="url(#mask-4)"></path>
                <path d="M629.384201,44.361882 C629.384201,48.9557496 625.660216,52.6797349 621.066348,52.6797349 C616.472481,52.6797349 612.748495,48.9557496 612.748495,44.361882 C612.748495,39.7680144 616.472481,36.0440291 621.066348,36.0440291 C625.660216,36.0440291 629.384201,39.7680144 629.384201,44.361882" id="Fill-29" fill="#FFFFFF" mask="url(#mask-4)"></path>
                <polygon id="Fill-30" fill="#FFFFFF" mask="url(#mask-4)" points="359.136543 135.858264 343.106217 135.858264 320.305893 58.5021386 297.227913 135.858264 281.336415 135.858264 255.080822 38.8166468 271.387089 38.8166468 289.904318 114.924482 312.567528 38.8166468 328.459027 38.8166468 351.122237 115.063754 369.639466 38.8166468 385.39385 38.8166468"></polygon>
            </g>
        </g>
    </g>
</svg>